<svg xmlns="http://www.w3.org/2000/svg" width="430" height="430" style="width:100%;height:100%;transform:translate3d(0,0,0);content-visibility:visible" viewBox="0 0 430 430"><defs><clipPath id="a"><path d="M0 0h430v430H0z"/></clipPath><clipPath id="c"><path d="M0 0h430v430H0z"/></clipPath><clipPath id="b"><path d="M0 0h430v430H0z"/></clipPath></defs><g fill="none" clip-path="url(#a)"><g clip-path="url(#b)" style="display:block"><path stroke="#3A3347" stroke-linecap="round" stroke-linejoin="round" stroke-width="7" d="M145.227-62.137c26.001 13.373 41.579 30.409 41.579 48.961C186.806 29.811 103.17 64.66 0 64.66c-103.17 0-186.806-34.849-186.806-77.836 0-19.739 17.636-37.763 46.699-51.484" class="secondary" style="display:block" transform="translate(215 241.382)"/><g stroke="#F24C00" stroke-linecap="round" stroke-linejoin="round" stroke-width="7" style="display:block"><path d="M273.186 207.595s0 0 0 0c13.151 0 23.812-10.661 23.812-23.812v-31.518c0-13.151-10.661-23.812-23.812-23.812 0 0 0 0 0 0-13.151 0-23.812 10.661-23.812 23.812v31.518c0 13.151 10.661 23.812 23.812 23.812zM177.2 183.893l.159-11.405c.297-21.284 15.343-39.503 36.187-43.819 0 0 0 0 0 0" class="primary"/><path d="M177.196 184.366c0 12.829 10.004 23.229 22.345 23.229s22.345-10.4 22.345-23.229c0-12.829-10.004-23.229-22.345-23.229s-22.345 10.4-22.345 23.229zm-51.363-17.148c13.229 0 23.956 9.077 23.956 20.219 0 11.132-10.722 20.159-23.951 20.159-10.411 0-19.27-5.591-22.569-13.399" class="primary"/><path d="M105.46 141.025c3.057-7.226 10.782-12.348 19.837-12.348 11.743 0 21.253 8.622 21.253 19.269 0 10.647-9.51 19.279-21.253 19.279m-.001 0h-4.766m234.531-23.081c0 8.666-7.026 15.692-15.692 15.692s-15.692-7.026-15.692-15.692 7.026-15.692 15.692-15.692 15.692 7.026 15.692 15.692z" class="primary"/></g><path stroke="#3A3347" stroke-linecap="round" stroke-linejoin="round" stroke-width="7" d="M-14.895-29.79 14.895 0l-29.79 29.79" class="secondary" style="display:block" transform="translate(215 305.76)"/><path class="secondary" style="display:none"/></g><g clip-path="url(#c)" style="display:none"><g style="display:none"><path class="primary"/><path class="primary"/><path class="primary"/><path class="primary"/><path class="primary"/><path class="primary"/><path class="primary"/></g><path class="secondary" style="display:none"/><path class="secondary" style="display:none"/></g></g></svg>